<?xml version="1.0" encoding="UTF-8"?>
<svg width="154px" height="53px" viewBox="0 0 154 53" version="1.1" xmlns="http://www.w3.org/2000/svg" xmlns:xlink="http://www.w3.org/1999/xlink">
    <!-- Generator: Sketch 53.2 (72643) - https://sketchapp.com -->
    <title>logo</title>
    <desc>Created with Sketch.</desc>
    <g id="Symbols" stroke="none" stroke-width="1" fill="none" fill-rule="evenodd">
        <g id="header-wide-2" transform="translate(-50.000000, -80.000000)" fill="#FFFFFF" fill-rule="nonzero">
            <g id="header-container">
                <g id="header" transform="translate(50.000000, 79.000000)">
                    <g id="logo" transform="translate(0.000000, 1.000000)">
                        <path d="M46.1530836,3.9533302 C45.072846,4.42301784 38.0278177,8.0396127 38.0278177,8.0396127 C30.0434523,12.5016453 23.6089932,15.3667399 18.3487054,16.9167092 C15.3428266,17.8091157 12.6657159,18.2318346 10.2704063,18.2318346 C8.67353321,18.2318346 7.17059385,18.0439595 5.80855505,17.6682094 C4.30561568,17.1985217 3.1314443,16.353084 3.1314443,16.353084 C2.42694147,15.7894588 -1.04860581,12.8773954 0.313432992,8.88505045 C0.313432992,8.88505045 0.548267268,8.22748775 1.20580324,7.8987064 C1.72243865,7.66386258 2.56784204,7.61689382 3.41324543,8.13355022 C3.41324543,8.13355022 4.16471512,8.41536281 3.74201342,9.3547381 C3.41324543,10.1062383 2.66177575,15.3197712 7.40542812,16.4000527 C8.29779837,16.540959 9.23713547,16.6348966 10.2704063,16.6348966 C16.4700312,16.6348966 25.0649657,13.4410206 37.276348,6.67751853 C37.4642154,6.53661224 41.3154975,4.32908032 45.5425145,2.49729851 C48.0787247,1.37004816 50.2392,0.618547936 51.9769737,0.289766585 C53.808681,-0.132952293 55.2176867,-0.0859835291 56.1570238,0.383704114 C56.1570238,0.383704114 57.5190626,0.99429805 57.8947974,2.26245469 C58.1296317,3.20182997 57.8478306,4.56392414 56.3448912,6.48964347 C56.2039906,6.7244873 56.0630901,6.91236235 55.8752226,7.10023741 C58.2705323,5.12754931 61.1824773,3.24879874 63.5777869,3.53061132 C64.7519583,3.67151762 65.7852291,4.37604908 66.3957982,5.50329942 C67.4760359,7.33508123 67.429069,10.2001759 66.2548976,12.8773954 C65.7852291,13.957677 64.3762234,16.6818653 61.1824773,18.5136471 C59.7734716,19.3590849 58.2235654,19.8757413 56.5327586,20.0636164 C56.2979243,20.1105851 56.0630901,20.1575539 55.8282558,20.1575539 C56.3918581,20.4863352 56.9554603,20.8620854 57.5190626,21.2848042 C59.3038031,22.6938672 60.618875,24.3377739 61.4173116,26.1695557 C62.4505824,28.4710252 62.6384498,31.1482447 62.0748475,34.0133394 C61.5112453,36.7375277 60.4310076,39.1799034 58.8341345,41.2465291 C57.378162,43.1722484 55.4994878,44.7222176 53.2450788,45.8964367 C50.2861669,47.4933747 46.8106196,48.2918437 43.3350723,48.2918437 C40.3291936,48.2918437 37.3233149,47.6812498 34.5522704,46.5539994 C28.8223141,44.1116237 26.567905,40.2132162 25.6755348,37.3481216 C24.4074297,33.2618391 25.0649657,28.6589002 27.4602753,24.9483678 C29.0101815,22.5059921 31.6872922,20.6742103 34.9749721,19.8757413 C37.3233149,19.2651474 39.8125582,19.2651474 42.1139341,19.8287725 C49.1119955,9.40170686 56.6266923,4.09423649 55.6403884,2.02761086 C55.5464547,1.83973581 55.2646535,1.74579828 55.0767861,1.69882951 C54.4192501,1.55792322 53.479913,1.60489199 52.3057417,1.83973581 C50.6619017,2.16851716 48.5953601,2.87304862 46.1530836,3.9533302 Z M50.6619017,33.7784955 C50.6619017,33.7784955 50.567968,34.6239333 50.2392,35.4693711 C49.9573989,36.1739025 49.6286309,36.878434 49.1589624,37.3950904 C49.1589624,37.3950904 48.7832275,37.864778 47.984791,37.9587156 C47.4211887,38.0056843 46.6227522,37.7238717 46.0121831,36.9723715 C46.0121831,36.9723715 45.4485808,36.4087463 46.2000505,35.7042149 C46.6227522,35.281496 48.2665921,32.7451827 48.1726584,29.504338 C48.1726584,29.504338 48.2665921,25.7468368 45.3546471,23.1635548 C42.8654038,27.6725562 40.5640279,32.7921515 40.7049284,36.1739025 C40.7049284,36.8314652 39.9534587,37.1132778 39.5307571,36.6435902 C37.7460166,34.5299958 35.7264418,29.9270569 40.845829,21.7075231 C40.9867296,21.5666168 41.0806633,21.3787418 41.174597,21.2378355 C39.2959228,20.8620854 37.276348,20.9090541 35.3507069,21.4257105 C32.4857288,22.130242 30.137386,23.6802112 28.7753472,25.8407744 C27.7890433,27.3907436 27.0845404,29.2225254 26.8027393,31.101276 C26.4739713,33.0739641 26.6148719,35.0466522 27.1784741,36.878434 C28.1178112,39.8374661 30.0904192,42.2328731 33.0023642,43.9707174 C37.3702817,46.5070307 51.4133714,48.43275 56.3448912,36.3148088 C60.8067424,25.2301804 54.8889187,21.4257105 53.9026147,20.9090541 C52.4466422,20.2045227 51.2724708,19.8287725 50.896736,19.734835 C50.7558354,19.6878662 50.6619017,19.6878662 50.5210012,19.6408975 C50.0982995,19.54696 49.8634652,19.1242411 49.9573989,18.6545534 C50.0982995,18.2318346 50.5210012,17.9969907 50.9437029,18.0909283 C50.9437029,18.0909283 51.7421394,18.3257721 51.9769737,18.3257721 C56.3918581,18.9833348 60.618875,15.6485525 62.5914829,11.9380201 C64.6580246,8.0396127 63.859588,6.01995583 63.859588,6.01995583 C63.2020521,4.37604908 59.961339,6.16086212 59.961339,6.16086212 C58.3174991,7.10023741 56.3918581,8.65020663 54.3722833,10.7168323 C52.0709074,13.0652705 50.0513326,15.6955213 49.2998629,16.6348966 C48.4074927,17.9969907 47.327255,19.6878662 46.2470173,21.6135856 C47.7499567,22.6468984 48.9241281,24.0559613 49.7225646,25.6998681 C50.4270675,27.1558998 50.8028023,28.7998065 50.8497691,30.5846196 C50.896736,31.6179324 50.8497691,32.8391203 50.6619017,33.7784955 Z M82.5054295,24.3377739 C82.9281312,24.3377739 83.1629655,24.7604928 82.9750981,25.1362429 C82.0827278,26.5922746 79.9692193,29.9740256 77.6678434,32.7921515 C77.6678434,32.7921515 75.8831029,35.1405897 73.3468928,36.5966214 C71.7030528,37.5359967 69.6834781,37.9587156 67.8517707,37.2541841 C65.4094942,36.3148088 64.4231903,34.3421207 64.4231903,32.3694326 C64.4231903,29.5982755 66.1139971,26.8271184 66.1139971,26.8271184 C68.6502073,22.4120546 73.2999259,18.748491 76.6815395,19.1242411 C76.6815395,19.1242411 77.2451417,19.1712098 77.6678434,19.3590849 C78.1844789,19.5939287 78.5132468,19.9696788 78.6541474,20.2514914 C78.9829154,20.8151166 79.0768491,21.5196481 78.9829154,22.4120546 C78.9829154,22.4120546 78.6071805,24.4786802 76.9633406,26.4513683 C75.8831029,27.7195249 74.0983625,29.0346503 71.7500197,28.5649627 C71.7500197,28.5649627 70.6228152,28.3301189 70.2001135,27.5786186 C70.1531466,27.6725562 70.1061798,27.7664937 70.0122461,27.8604312 C66.0200634,34.2951519 68.7911078,36.0329962 68.7911078,36.0329962 C70.2470803,36.7844965 71.8909203,36.2208713 73.2999259,35.281496 C75.2725338,33.9663706 76.8224401,31.9467137 76.8224401,31.9467137 C78.1844789,30.302807 79.8283188,28.0013375 81.8009267,24.7604928 C81.9418273,24.4786802 82.2236284,24.3377739 82.5054295,24.3377739 Z M77.3860423,20.533304 C77.1981749,20.4393665 75.8361361,20.0166476 71.4212517,25.9347119 C70.8106826,26.9210559 71.656086,27.3437748 71.656086,27.3437748 C72.2196882,27.6255874 73.0181248,27.5316499 73.6286939,27.3437748 C74.7558984,26.9210559 75.6013018,26.0286494 75.6013018,26.0286494 C77.1981749,24.3847427 77.6678434,22.5059921 77.6678434,22.5059921 C78.137512,20.8620854 77.3860423,20.533304 77.3860423,20.533304 Z M82.6463301,30.2558382 C81.2842913,33.2148704 80.3449542,35.5163398 81.1433907,35.9860275 C81.1433907,35.9860275 84.9946728,37.4890279 92.6033034,24.7604928 C92.7911708,24.4786802 93.0260051,24.3377739 93.3078062,24.3377739 C93.7305079,24.3377739 93.9653422,24.7604928 93.7774748,25.1362429 C91.9457674,28.3770876 85.93401,37.7238717 80.9085565,37.2541841 C80.9085565,37.2541841 77.2921086,37.2541841 79.5934845,30.1149319 C83.1159986,19.0772723 93.9183753,4.84573672 93.9183753,4.84573672 C94.2941102,4.37604908 94.9046793,4.09423649 95.4682816,4.09423649 L96.8303204,4.09423649 C97.4408895,4.09423649 97.7696575,4.79876796 97.4408895,5.31542437 C97.4408895,5.31542437 87.7187504,19.3590849 82.6463301,30.2558382 Z M93.4017399,30.2558382 C92.0397011,33.2148704 91.100364,35.5163398 91.8988006,35.9860275 C91.8988006,35.9860275 95.7500827,37.4890279 103.358713,24.7604928 C103.546581,24.4786802 103.781415,24.3377739 104.063216,24.3377739 C104.485918,24.3377739 104.720752,24.7604928 104.532885,25.1362429 C102.701177,28.3770876 96.6894198,37.7238717 91.6639663,37.2541841 C91.6639663,37.2541841 88.0475184,37.2541841 90.3488943,30.1149319 C93.8714085,19.0772723 104.673785,4.84573672 104.673785,4.84573672 C105.04952,4.37604908 105.660089,4.09423649 106.223691,4.09423649 L107.58573,4.09423649 C108.196299,4.09423649 108.525067,4.79876796 108.196299,5.31542437 C108.196299,5.31542437 98.4741603,19.3590849 93.4017399,30.2558382 Z M118.294173,24.3377739 C118.716875,24.3377739 118.951709,24.7604928 118.763842,25.1362429 C117.871471,26.5922746 115.757963,29.9740256 113.456587,32.7921515 C113.456587,32.7921515 111.671847,35.1405897 109.135636,36.5966214 C107.491796,37.5359967 105.472222,37.9587156 103.640514,37.2541841 C101.198238,36.3148088 100.211934,34.3421207 100.211934,32.3694326 C100.211934,29.5982755 101.902741,26.8271184 101.902741,26.8271184 C104.438951,22.4120546 109.08867,18.748491 112.470283,19.1242411 C112.470283,19.1242411 113.033885,19.1712098 113.456587,19.3590849 C113.973222,19.5939287 114.30199,19.9696788 114.442891,20.2514914 C114.771659,20.8151166 114.865593,21.5196481 114.771659,22.4120546 C114.771659,22.4120546 114.395924,24.4786802 112.752084,26.4513683 C111.671847,27.7195249 109.887106,29.0346503 107.538763,28.5649627 C107.538763,28.5649627 106.411559,28.3301189 105.988857,27.5786186 C105.94189,27.6725562 105.894923,27.7664937 105.80099,27.8604312 C101.808807,34.2951519 104.579851,36.0329962 104.579851,36.0329962 C106.035824,36.7844965 107.679664,36.2208713 109.08867,35.281496 C111.061277,33.9663706 112.611184,31.9467137 112.611184,31.9467137 C113.973222,30.302807 115.617062,28.0013375 117.58967,24.7604928 C117.730571,24.4786802 118.012372,24.3377739 118.294173,24.3377739 Z M113.174786,20.533304 C112.986919,20.4393665 111.62488,20.0166476 107.209995,25.9347119 C106.599426,26.9210559 107.44483,27.3437748 107.44483,27.3437748 C108.008432,27.6255874 108.806868,27.5316499 109.417438,27.3437748 C110.544642,26.9210559 111.390045,26.0286494 111.390045,26.0286494 C112.986919,24.3847427 113.456587,22.5059921 113.456587,22.5059921 C113.926256,20.8620854 113.174786,20.533304 113.174786,20.533304 Z M131.679727,24.3377739 C132.055462,24.3377739 132.290296,24.7604928 132.102429,25.1362429 C130.411622,27.9543688 124.305931,37.7708405 120.548582,37.2541841 C120.548582,37.2541841 116.321565,37.1132778 119.045643,30.1149319 C119.98498,27.7664937 121.440952,25.3710867 122.849958,23.4453674 C124.258964,21.4257105 122.286356,20.7211791 121.253085,20.4863352 C119.98498,23.1635548 118.529007,25.6059305 117.824505,26.7801497 C117.58967,27.108931 117.120002,27.108931 116.932134,26.7331809 C116.791234,26.4983371 116.791234,26.1695557 116.932134,25.9347119 C118.294173,23.72718 119.280477,21.8484294 120.078914,20.2984602 C115.382228,19.3121161 117.073035,16.0712714 118.763842,14.944021 C120.501615,13.8167707 122.286356,14.0985833 122.990859,15.0379586 C123.695362,15.8833963 122.427256,18.4197096 121.76972,19.5939287 C124.587732,20.2984602 127.781478,22.2241795 125.292235,25.8407744 C122.286356,30.2558382 119.562278,35.3284648 120.783416,35.9860275 C120.783416,35.9860275 123.883229,36.4557151 130.975224,24.7604928 C131.116125,24.4786802 131.397926,24.3377739 131.679727,24.3377739 Z M118.529007,17.8560844 C118.529007,17.8560844 118.012372,18.7954597 120.501615,19.3121161 C120.924317,18.2788033 121.863654,15.8364276 121.534886,15.74249 C121.112184,15.6485525 119.374411,16.2121777 118.529007,17.8560844 Z M153.942016,40.9647165 C154.129884,41.6692479 153.801116,42.2798419 153.801116,42.2798419 C151.64064,46.3661244 143.13964,44.5343426 143.13964,44.5343426 C143.13964,44.5343426 138.677788,43.7828423 134.02807,42.6086232 C130.693423,46.3661244 125.621003,49.7478754 118.435074,48.8554689 C118.435074,48.8554689 114.959526,48.43275 112.51725,46.835812 C110.826443,45.7085617 109.699239,43.9237486 110.497675,41.5283416 C112.047581,36.7375277 122.333323,38.475372 132.102429,40.4010913 C133.793235,38.1935594 135.390108,35.4224023 136.846081,31.899745 C134.497738,34.8587771 131.820627,37.5359967 129.801053,37.2541841 C129.801053,37.2541841 125.761903,37.1602466 128.34508,30.1149319 C129.98892,25.6059305 132.994799,21.3787418 134.262904,19.6878662 C134.591672,19.2181786 135.155274,18.936366 135.765843,18.936366 L137.080915,18.936366 C137.738451,18.936366 138.114186,19.6408975 137.785418,20.1575539 C135.296175,23.915055 128.251146,34.9527146 130.035887,35.9860275 C130.035887,35.9860275 132.806931,36.4087463 139.10049,26.5922746 C140.697363,23.5393049 142.52907,20.9090541 143.468408,19.6878662 C143.797176,19.2181786 144.360778,18.936366 144.971347,18.936366 L146.286419,18.936366 C146.943955,18.936366 147.31969,19.6408975 146.990922,20.1575539 C144.501678,23.915055 137.45665,34.9527146 139.241391,35.9860275 C139.241391,35.9860275 142.341203,36.4557151 149.433198,24.7604928 C149.621066,24.4786802 149.8559,24.3377739 150.137701,24.3377739 C150.560403,24.3377739 150.795237,24.7604928 150.60737,25.1362429 C148.916563,27.9543688 142.810872,37.7708405 139.006556,37.2541841 C139.006556,37.2541841 138.442954,37.2541841 137.879352,36.878434 C137.268783,38.0526531 136.423379,39.5556535 135.296175,41.0116852 C138.255087,41.6222792 141.073098,42.1389356 143.421441,42.4207482 C147.836325,42.9374046 150.137701,41.8101542 151.170972,40.07231 C151.734574,39.1799034 152.345143,39.5086848 152.345143,39.5086848 C153.237513,39.7904974 153.754149,40.4480601 153.942016,40.9647165 Z M118.763842,47.2585309 C122.615124,47.5403435 126.983041,46.1312806 130.928257,41.7631855 C125.198301,40.260185 112.799051,37.9117468 111.483979,41.9510605 C110.732509,44.2994987 113.174786,46.835812 118.763842,47.2585309 Z" id="Bellery"></path>
                        <path d="M76.559126,42.4763948 L70.2429306,42.4763948 L70.2429306,41.2918455 L78.7628535,41.2918455 L71.0064267,53 L70,52.3304721 L76.559126,42.4763948 Z M84.627892,41 L85.5996144,41.72103 L82.9273779,45.3948498 C83.1356052,45.3261799 83.3496133,45.2804007 83.5694087,45.2575107 C83.7892042,45.2346208 83.9222363,45.223176 83.968509,45.223176 C84.9980771,45.223176 85.8772457,45.5894098 86.6060411,46.3218884 C87.3348365,47.054367 87.6992288,47.9527844 87.6992288,49.0171674 C87.6992288,50.0929954 87.3117005,51.0143023 86.5366324,51.7811159 C85.7615642,52.5479294 84.8245556,52.9313305 83.7255784,52.9313305 C82.615033,52.9313305 81.6722404,52.5536518 80.8971722,51.7982833 C80.1221041,51.0429147 79.7345758,50.1158853 79.7345758,49.0171674 C79.7345758,48.147349 80.052696,47.2832661 80.688946,46.4248927 L84.627892,41 Z M83.7255784,46.3562232 C82.9736466,46.3562232 82.3316222,46.6194537 81.7994859,47.1459227 C81.2673495,47.6723918 81.0012853,48.3075785 81.0012853,49.0515021 C81.0012853,49.7954258 81.2673495,50.4306125 81.7994859,50.9570815 C82.3316222,51.4835506 82.9736466,51.7467811 83.7255784,51.7467811 C84.465942,51.7467811 85.1021824,51.4835506 85.6343188,50.9570815 C86.1664551,50.4306125 86.4325193,49.7954258 86.4325193,49.0515021 C86.4325193,48.3075785 86.1722391,47.6723918 85.651671,47.1459227 C85.1311028,46.6194537 84.4890784,46.3562232 83.7255784,46.3562232 Z M92.1413882,51.5579399 L96.9826478,51.5579399 L96.9826478,52.7424893 L89.5212082,52.7424893 L93.720437,47.9184549 C94.483937,47.0600815 95.0102813,46.3819767 95.2994859,45.8841202 C95.5886904,45.3862636 95.7332905,44.9256101 95.7332905,44.5021459 C95.7332905,43.8955621 95.5077143,43.3748233 95.0565553,42.9399142 C94.6053962,42.505005 94.0559158,42.2875536 93.4080977,42.2875536 C92.0083478,42.2875536 91.2390752,43.0715229 91.1002571,44.639485 L89.7988432,44.639485 C89.8451159,44.1359059 89.914524,43.7381989 90.0070694,43.4463519 C90.0996149,43.154505 90.270243,42.8254668 90.5189589,42.4592275 C90.7676748,42.0929882 91.155203,41.778256 91.6815553,41.5150215 C92.2079075,41.251787 92.7718479,41.1201717 93.3733933,41.1201717 C94.3913933,41.1201717 95.2503178,41.4434875 95.9501928,42.0901288 C96.6500678,42.73677 97,43.5350453 97,44.4849785 C97,45.1373423 96.8438319,45.7381947 96.531491,46.2875536 C96.2191501,46.8369126 95.5424217,47.7009955 94.5012853,48.8798283 L92.1413882,51.5579399 Z" id="762"></path>
                    </g>
                </g>
            </g>
        </g>
    </g>
</svg>